<mxfile host="app.diagrams.net" modified="2023-11-13T09:32:09.370Z" agent="Mozilla/5.0 (Macintosh; Intel Mac OS X 10_15_7) AppleWebKit/537.36 (KHTML, like Gecko) Chrome/119.0.0.0 Safari/537.36" etag="uju202HRu8swcy3GFizh" version="22.1.0" type="github">
  <diagram id="C5RBs43oDa-KdzZeNtuy" name="Page-1">
    <mxGraphModel dx="2460" dy="1142" grid="0" gridSize="10" guides="1" tooltips="1" connect="1" arrows="1" fold="1" page="0" pageScale="1" pageWidth="827" pageHeight="1169" math="0" shadow="0">
      <root>
        <mxCell id="WIyWlLk6GJQsqaUBKTNV-0" />
        <mxCell id="WIyWlLk6GJQsqaUBKTNV-1" parent="WIyWlLk6GJQsqaUBKTNV-0" />
        <mxCell id="woDvHZoypQkjEkuBzT4G-44" value="" style="edgeStyle=orthogonalEdgeStyle;rounded=0;orthogonalLoop=1;jettySize=auto;html=1;" edge="1" parent="WIyWlLk6GJQsqaUBKTNV-1" source="woDvHZoypQkjEkuBzT4G-41" target="woDvHZoypQkjEkuBzT4G-43">
          <mxGeometry relative="1" as="geometry" />
        </mxCell>
        <mxCell id="woDvHZoypQkjEkuBzT4G-45" value="Catch&lt;br&gt;Exception" style="edgeLabel;html=1;align=center;verticalAlign=middle;resizable=0;points=[];" vertex="1" connectable="0" parent="woDvHZoypQkjEkuBzT4G-44">
          <mxGeometry x="-0.1398" y="-3" relative="1" as="geometry">
            <mxPoint as="offset" />
          </mxGeometry>
        </mxCell>
        <mxCell id="woDvHZoypQkjEkuBzT4G-41" value="" style="rounded=0;whiteSpace=wrap;html=1;dashed=1;fillColor=#dae8fc;strokeColor=#6c8ebf;" vertex="1" parent="WIyWlLk6GJQsqaUBKTNV-1">
          <mxGeometry x="712" y="195" width="1082" height="207" as="geometry" />
        </mxCell>
        <mxCell id="woDvHZoypQkjEkuBzT4G-4" value="" style="edgeStyle=orthogonalEdgeStyle;rounded=0;orthogonalLoop=1;jettySize=auto;html=1;" edge="1" parent="WIyWlLk6GJQsqaUBKTNV-1" source="woDvHZoypQkjEkuBzT4G-0" target="woDvHZoypQkjEkuBzT4G-3">
          <mxGeometry relative="1" as="geometry" />
        </mxCell>
        <mxCell id="woDvHZoypQkjEkuBzT4G-0" value="Start" style="ellipse;whiteSpace=wrap;html=1;" vertex="1" parent="WIyWlLk6GJQsqaUBKTNV-1">
          <mxGeometry x="-149" y="255" width="120" height="80" as="geometry" />
        </mxCell>
        <mxCell id="woDvHZoypQkjEkuBzT4G-6" value="" style="edgeStyle=orthogonalEdgeStyle;rounded=0;orthogonalLoop=1;jettySize=auto;html=1;" edge="1" parent="WIyWlLk6GJQsqaUBKTNV-1" source="woDvHZoypQkjEkuBzT4G-3" target="woDvHZoypQkjEkuBzT4G-5">
          <mxGeometry relative="1" as="geometry" />
        </mxCell>
        <mxCell id="woDvHZoypQkjEkuBzT4G-8" value="NO" style="edgeLabel;html=1;align=center;verticalAlign=middle;resizable=0;points=[];" vertex="1" connectable="0" parent="woDvHZoypQkjEkuBzT4G-6">
          <mxGeometry x="-0.2889" y="-3" relative="1" as="geometry">
            <mxPoint as="offset" />
          </mxGeometry>
        </mxCell>
        <mxCell id="woDvHZoypQkjEkuBzT4G-10" value="" style="edgeStyle=orthogonalEdgeStyle;rounded=0;orthogonalLoop=1;jettySize=auto;html=1;" edge="1" parent="WIyWlLk6GJQsqaUBKTNV-1" source="woDvHZoypQkjEkuBzT4G-3">
          <mxGeometry relative="1" as="geometry">
            <mxPoint x="296.5" y="295" as="targetPoint" />
          </mxGeometry>
        </mxCell>
        <mxCell id="woDvHZoypQkjEkuBzT4G-11" value="YES" style="edgeLabel;html=1;align=center;verticalAlign=middle;resizable=0;points=[];" vertex="1" connectable="0" parent="woDvHZoypQkjEkuBzT4G-10">
          <mxGeometry x="-0.2542" y="-3" relative="1" as="geometry">
            <mxPoint x="4" y="-5" as="offset" />
          </mxGeometry>
        </mxCell>
        <mxCell id="woDvHZoypQkjEkuBzT4G-3" value="is git repo&lt;br&gt;root folder?" style="rhombus;whiteSpace=wrap;html=1;" vertex="1" parent="WIyWlLk6GJQsqaUBKTNV-1">
          <mxGeometry x="71" y="255" width="137" height="80" as="geometry" />
        </mxCell>
        <mxCell id="woDvHZoypQkjEkuBzT4G-30" style="edgeStyle=orthogonalEdgeStyle;rounded=0;orthogonalLoop=1;jettySize=auto;html=1;" edge="1" parent="WIyWlLk6GJQsqaUBKTNV-1" source="woDvHZoypQkjEkuBzT4G-5" target="woDvHZoypQkjEkuBzT4G-27">
          <mxGeometry relative="1" as="geometry">
            <Array as="points">
              <mxPoint x="140" y="528" />
              <mxPoint x="365" y="528" />
            </Array>
          </mxGeometry>
        </mxCell>
        <mxCell id="woDvHZoypQkjEkuBzT4G-5" value="Throw Error:&lt;br&gt;should run in root folder" style="whiteSpace=wrap;html=1;" vertex="1" parent="WIyWlLk6GJQsqaUBKTNV-1">
          <mxGeometry x="79.5" y="425" width="120" height="60" as="geometry" />
        </mxCell>
        <mxCell id="woDvHZoypQkjEkuBzT4G-16" value="" style="edgeStyle=orthogonalEdgeStyle;rounded=0;orthogonalLoop=1;jettySize=auto;html=1;" edge="1" parent="WIyWlLk6GJQsqaUBKTNV-1" source="woDvHZoypQkjEkuBzT4G-12" target="woDvHZoypQkjEkuBzT4G-15">
          <mxGeometry relative="1" as="geometry" />
        </mxCell>
        <mxCell id="woDvHZoypQkjEkuBzT4G-18" value="YES" style="edgeLabel;html=1;align=center;verticalAlign=middle;resizable=0;points=[];" vertex="1" connectable="0" parent="woDvHZoypQkjEkuBzT4G-16">
          <mxGeometry x="-0.05" y="-4" relative="1" as="geometry">
            <mxPoint x="-1" y="-4" as="offset" />
          </mxGeometry>
        </mxCell>
        <mxCell id="woDvHZoypQkjEkuBzT4G-22" value="" style="edgeStyle=orthogonalEdgeStyle;rounded=0;orthogonalLoop=1;jettySize=auto;html=1;" edge="1" parent="WIyWlLk6GJQsqaUBKTNV-1" source="woDvHZoypQkjEkuBzT4G-12" target="woDvHZoypQkjEkuBzT4G-21">
          <mxGeometry relative="1" as="geometry" />
        </mxCell>
        <mxCell id="woDvHZoypQkjEkuBzT4G-23" value="NO" style="edgeLabel;html=1;align=center;verticalAlign=middle;resizable=0;points=[];" vertex="1" connectable="0" parent="woDvHZoypQkjEkuBzT4G-22">
          <mxGeometry x="-0.2" y="-2" relative="1" as="geometry">
            <mxPoint as="offset" />
          </mxGeometry>
        </mxCell>
        <mxCell id="woDvHZoypQkjEkuBzT4G-12" value="is lowcode engine&lt;br&gt;git repo?" style="rhombus;whiteSpace=wrap;html=1;" vertex="1" parent="WIyWlLk6GJQsqaUBKTNV-1">
          <mxGeometry x="296" y="255" width="137" height="80" as="geometry" />
        </mxCell>
        <mxCell id="woDvHZoypQkjEkuBzT4G-20" value="YES" style="edgeStyle=orthogonalEdgeStyle;rounded=0;orthogonalLoop=1;jettySize=auto;html=1;" edge="1" parent="WIyWlLk6GJQsqaUBKTNV-1" source="woDvHZoypQkjEkuBzT4G-15" target="woDvHZoypQkjEkuBzT4G-19">
          <mxGeometry relative="1" as="geometry" />
        </mxCell>
        <mxCell id="woDvHZoypQkjEkuBzT4G-25" value="" style="edgeStyle=orthogonalEdgeStyle;rounded=0;orthogonalLoop=1;jettySize=auto;html=1;" edge="1" parent="WIyWlLk6GJQsqaUBKTNV-1" source="woDvHZoypQkjEkuBzT4G-15" target="woDvHZoypQkjEkuBzT4G-24">
          <mxGeometry relative="1" as="geometry" />
        </mxCell>
        <mxCell id="woDvHZoypQkjEkuBzT4G-26" value="NO" style="edgeLabel;html=1;align=center;verticalAlign=middle;resizable=0;points=[];" vertex="1" connectable="0" parent="woDvHZoypQkjEkuBzT4G-25">
          <mxGeometry x="-0.2222" y="-2" relative="1" as="geometry">
            <mxPoint as="offset" />
          </mxGeometry>
        </mxCell>
        <mxCell id="woDvHZoypQkjEkuBzT4G-15" value="is working tree &lt;br&gt;clean?" style="rhombus;whiteSpace=wrap;html=1;" vertex="1" parent="WIyWlLk6GJQsqaUBKTNV-1">
          <mxGeometry x="513" y="255" width="137" height="80" as="geometry" />
        </mxCell>
        <mxCell id="woDvHZoypQkjEkuBzT4G-33" value="" style="edgeStyle=orthogonalEdgeStyle;rounded=0;orthogonalLoop=1;jettySize=auto;html=1;" edge="1" parent="WIyWlLk6GJQsqaUBKTNV-1" source="woDvHZoypQkjEkuBzT4G-19" target="woDvHZoypQkjEkuBzT4G-32">
          <mxGeometry relative="1" as="geometry" />
        </mxCell>
        <mxCell id="woDvHZoypQkjEkuBzT4G-19" value="change &quot;paths&quot; of tsconfig.json" style="whiteSpace=wrap;html=1;" vertex="1" parent="WIyWlLk6GJQsqaUBKTNV-1">
          <mxGeometry x="738.5" y="265" width="120" height="60" as="geometry" />
        </mxCell>
        <mxCell id="woDvHZoypQkjEkuBzT4G-28" value="" style="edgeStyle=orthogonalEdgeStyle;rounded=0;orthogonalLoop=1;jettySize=auto;html=1;" edge="1" parent="WIyWlLk6GJQsqaUBKTNV-1" source="woDvHZoypQkjEkuBzT4G-21" target="woDvHZoypQkjEkuBzT4G-27">
          <mxGeometry relative="1" as="geometry" />
        </mxCell>
        <mxCell id="woDvHZoypQkjEkuBzT4G-21" value="Throw Error:&lt;br&gt;unsupported package" style="whiteSpace=wrap;html=1;" vertex="1" parent="WIyWlLk6GJQsqaUBKTNV-1">
          <mxGeometry x="304.5" y="425" width="120" height="60" as="geometry" />
        </mxCell>
        <mxCell id="woDvHZoypQkjEkuBzT4G-31" style="edgeStyle=orthogonalEdgeStyle;rounded=0;orthogonalLoop=1;jettySize=auto;html=1;" edge="1" parent="WIyWlLk6GJQsqaUBKTNV-1" source="woDvHZoypQkjEkuBzT4G-24" target="woDvHZoypQkjEkuBzT4G-27">
          <mxGeometry relative="1" as="geometry">
            <Array as="points">
              <mxPoint x="582" y="528" />
              <mxPoint x="365" y="528" />
            </Array>
          </mxGeometry>
        </mxCell>
        <mxCell id="woDvHZoypQkjEkuBzT4G-24" value="Throw Error:&lt;br&gt;working tree is not clean" style="whiteSpace=wrap;html=1;" vertex="1" parent="WIyWlLk6GJQsqaUBKTNV-1">
          <mxGeometry x="521.5" y="425" width="120" height="60" as="geometry" />
        </mxCell>
        <mxCell id="woDvHZoypQkjEkuBzT4G-27" value="End" style="ellipse;whiteSpace=wrap;html=1;" vertex="1" parent="WIyWlLk6GJQsqaUBKTNV-1">
          <mxGeometry x="300.5" y="594" width="128" height="68" as="geometry" />
        </mxCell>
        <mxCell id="woDvHZoypQkjEkuBzT4G-49" style="edgeStyle=orthogonalEdgeStyle;rounded=0;orthogonalLoop=1;jettySize=auto;html=1;" edge="1" parent="WIyWlLk6GJQsqaUBKTNV-1" source="woDvHZoypQkjEkuBzT4G-32" target="woDvHZoypQkjEkuBzT4G-48">
          <mxGeometry relative="1" as="geometry" />
        </mxCell>
        <mxCell id="woDvHZoypQkjEkuBzT4G-32" value="change &quot;publishConfig&quot;&lt;br&gt;&amp;nbsp;of package.json" style="whiteSpace=wrap;html=1;" vertex="1" parent="WIyWlLk6GJQsqaUBKTNV-1">
          <mxGeometry x="956" y="265" width="120" height="60" as="geometry" />
        </mxCell>
        <mxCell id="woDvHZoypQkjEkuBzT4G-38" value="" style="edgeStyle=orthogonalEdgeStyle;rounded=0;orthogonalLoop=1;jettySize=auto;html=1;" edge="1" parent="WIyWlLk6GJQsqaUBKTNV-1" source="woDvHZoypQkjEkuBzT4G-34" target="woDvHZoypQkjEkuBzT4G-37">
          <mxGeometry relative="1" as="geometry" />
        </mxCell>
        <mxCell id="woDvHZoypQkjEkuBzT4G-34" value="Rename Packages" style="whiteSpace=wrap;html=1;" vertex="1" parent="WIyWlLk6GJQsqaUBKTNV-1">
          <mxGeometry x="1427" y="265" width="120" height="60" as="geometry" />
        </mxCell>
        <mxCell id="woDvHZoypQkjEkuBzT4G-40" value="" style="edgeStyle=orthogonalEdgeStyle;rounded=0;orthogonalLoop=1;jettySize=auto;html=1;" edge="1" parent="WIyWlLk6GJQsqaUBKTNV-1" source="woDvHZoypQkjEkuBzT4G-37" target="woDvHZoypQkjEkuBzT4G-39">
          <mxGeometry relative="1" as="geometry" />
        </mxCell>
        <mxCell id="woDvHZoypQkjEkuBzT4G-37" value="Commit&amp;nbsp; Change" style="whiteSpace=wrap;html=1;" vertex="1" parent="WIyWlLk6GJQsqaUBKTNV-1">
          <mxGeometry x="1629" y="265" width="120" height="60" as="geometry" />
        </mxCell>
        <mxCell id="woDvHZoypQkjEkuBzT4G-39" value="End" style="ellipse;whiteSpace=wrap;html=1;" vertex="1" parent="WIyWlLk6GJQsqaUBKTNV-1">
          <mxGeometry x="1849" y="255" width="131.5" height="80" as="geometry" />
        </mxCell>
        <mxCell id="woDvHZoypQkjEkuBzT4G-42" value="Try process" style="text;html=1;align=center;verticalAlign=middle;resizable=0;points=[];autosize=1;strokeColor=none;fillColor=none;" vertex="1" parent="WIyWlLk6GJQsqaUBKTNV-1">
          <mxGeometry x="713" y="202" width="80" height="26" as="geometry" />
        </mxCell>
        <mxCell id="woDvHZoypQkjEkuBzT4G-47" style="edgeStyle=orthogonalEdgeStyle;rounded=0;orthogonalLoop=1;jettySize=auto;html=1;entryX=0.5;entryY=0;entryDx=0;entryDy=0;" edge="1" parent="WIyWlLk6GJQsqaUBKTNV-1" source="woDvHZoypQkjEkuBzT4G-43" target="woDvHZoypQkjEkuBzT4G-46">
          <mxGeometry relative="1" as="geometry" />
        </mxCell>
        <mxCell id="woDvHZoypQkjEkuBzT4G-43" value="Restore changes" style="whiteSpace=wrap;html=1;rounded=0;" vertex="1" parent="WIyWlLk6GJQsqaUBKTNV-1">
          <mxGeometry x="1193" y="505" width="120" height="60" as="geometry" />
        </mxCell>
        <mxCell id="woDvHZoypQkjEkuBzT4G-46" value="End" style="ellipse;whiteSpace=wrap;html=1;" vertex="1" parent="WIyWlLk6GJQsqaUBKTNV-1">
          <mxGeometry x="1189" y="625" width="128" height="68" as="geometry" />
        </mxCell>
        <mxCell id="woDvHZoypQkjEkuBzT4G-50" style="edgeStyle=orthogonalEdgeStyle;rounded=0;orthogonalLoop=1;jettySize=auto;html=1;" edge="1" parent="WIyWlLk6GJQsqaUBKTNV-1" source="woDvHZoypQkjEkuBzT4G-48" target="woDvHZoypQkjEkuBzT4G-34">
          <mxGeometry relative="1" as="geometry" />
        </mxCell>
        <mxCell id="woDvHZoypQkjEkuBzT4G-48" value="change version regexp of build.plugin.js" style="whiteSpace=wrap;html=1;" vertex="1" parent="WIyWlLk6GJQsqaUBKTNV-1">
          <mxGeometry x="1183" y="265" width="120" height="60" as="geometry" />
        </mxCell>
      </root>
    </mxGraphModel>
  </diagram>
</mxfile>
